<?xml version="1.0" encoding="UTF-8" standalone="no"?>
<!-- Created with Inkscape (http://www.inkscape.org/) -->

<svg
   xmlns:dc="http://purl.org/dc/elements/1.1/"
   xmlns:cc="http://creativecommons.org/ns#"
   xmlns:rdf="http://www.w3.org/1999/02/22-rdf-syntax-ns#"
   xmlns:svg="http://www.w3.org/2000/svg"
   xmlns="http://www.w3.org/2000/svg"
   xmlns:xlink="http://www.w3.org/1999/xlink"
   xmlns:sodipodi="http://sodipodi.sourceforge.net/DTD/sodipodi-0.dtd"
   xmlns:inkscape="http://www.inkscape.org/namespaces/inkscape"
   width="187.09779mm"
   height="80.307602mm"
   viewBox="0 0 187.09779 80.307602"
   version="1.1"
   id="svg8"
   inkscape:version="0.92.2 5c3e80d, 2017-08-06"
   sodipodi:docname="desenho-1.svg">
  <defs
     id="defs2">
    <style
       id="style79"
       type="text/css"><![CDATA[
    .fil0 {fill:#9ABF3B;fill-rule:nonzero}
    .fil1 {fill:url(#id0);fill-rule:nonzero}
    .fil2 {fill:url(#id1);fill-rule:nonzero}
   ]]></style>
    <linearGradient
       y2="12186.67"
       x2="8025.3999"
       y1="9731.4697"
       x1="8053.4502"
       gradientUnits="userSpaceOnUse"
       id="id0">
      <stop
         id="stop81"
         style="stop-opacity:1; stop-color:#0078C0"
         offset="0" />
      <stop
         id="stop83"
         style="stop-opacity:1; stop-color:#0098DA"
         offset="1" />
    </linearGradient>
    <linearGradient
       y2="12845.77"
       x2="16166.08"
       y1="8562.8701"
       x1="16184.86"
       xlink:href="#id0"
       gradientUnits="userSpaceOnUse"
       id="id1" />
    <linearGradient
       inkscape:collect="always"
       xlink:href="#id0"
       id="linearGradient126"
       gradientUnits="userSpaceOnUse"
       x1="8053.4502"
       y1="9731.4697"
       x2="8025.3999"
       y2="12186.67" />
  </defs>
  <sodipodi:namedview
     id="base"
     pagecolor="#ffffff"
     bordercolor="#666666"
     borderopacity="1.0"
     inkscape:pageopacity="0.0"
     inkscape:pageshadow="2"
     inkscape:zoom="0.35"
     inkscape:cx="593.57065"
     inkscape:cy="97.476679"
     inkscape:document-units="mm"
     inkscape:current-layer="layer1"
     showgrid="false"
     fit-margin-top="0"
     fit-margin-left="0"
     fit-margin-right="0"
     fit-margin-bottom="0"
     inkscape:window-width="1868"
     inkscape:window-height="1035"
     inkscape:window-x="52"
     inkscape:window-y="1"
     inkscape:window-maximized="1" />
  <metadata
     id="metadata5">
    <rdf:RDF>
      <cc:Work
         rdf:about="">
        <dc:format>image/svg+xml</dc:format>
        <dc:type
           rdf:resource="http://purl.org/dc/dcmitype/StillImage" />
        <dc:title></dc:title>
      </cc:Work>
    </rdf:RDF>
  </metadata>
  <g
     inkscape:label="Layer 1"
     inkscape:groupmode="layer"
     id="layer1"
     transform="translate(51.215567,-94.316438)">
    <g
       style="clip-rule:evenodd;fill-rule:evenodd;image-rendering:optimizeQuality;shape-rendering:geometricPrecision;text-rendering:geometricPrecision"
       id="g124"
       transform="matrix(0.01,0,0,0.01,-97.366667,26.520238)">
      <g
         id="Camada_x0020_1">
        <metadata
           id="CorelCorpID_0Corel-Layer" />
        <g
           id="_1851688740416">
          <g
             id="g96">
            <path
               id="path90"
               d="m 7597.7,12744.75 c -1644.63,0 -2982.59,-1337.99 -2982.59,-2982.57 0,-1644.64 1337.96,-2982.56 2982.59,-2982.56 1644.57,0 2982.53,1337.92 2982.53,2982.56 0,1644.58 -1337.96,2982.57 -2982.53,2982.57 z m 0,-5535.66 v 0 c -1407.82,0 -2553.1,1145.24 -2553.1,2553.09 0,1407.71 1145.28,2552.95 2553.1,2552.95 1407.78,0 2553.02,-1145.24 2553.02,-2552.95 0,-1407.85 -1145.24,-2553.09 -2553.02,-2553.09 z"
               class="fil0"
               inkscape:connector-curvature="0"
               style="fill:#9abf3b;fill-rule:nonzero" />
            <polygon
               id="polygon92"
               points="5680.52,9122.38 5680.52,10403.16 6523.32,10403.16 8273.7,8588.96 8273.7,7810.18 6992.66,7810.18 6992.66,9122.38 "
               class="fil0"
               style="fill:#9abf3b;fill-rule:nonzero" />
            <polygon
               id="polygon94"
               points="9585.88,10403.16 9585.88,9122.38 8776.41,9122.38 6992.66,10971.04 6992.66,11715.47 8273.7,11715.47 8273.7,10403.16 "
               class="fil1"
               style="fill:url(#linearGradient126);fill-rule:nonzero" />
          </g>
          <path
             id="path98"
             d="m 11418.03,11939.9 1470.76,-4349.44 h 1192.55 l 1470.76,4349.44 h -1123.76 l -270.22,-879.46 H 12780.1 l -269.22,879.46 z m 2498.79,-1675.16 -447.71,-1442.84 -447.71,1442.84 z m 3939.63,1758.92 c -652.12,0 -1169.63,-197.43 -1552.52,-592.29 -383.89,-394.86 -575.34,-949.26 -575.34,-1665.2 0,-690 192.44,-1239.42 576.34,-1650.23 384.89,-409.82 902.39,-615.23 1554.51,-615.23 172.5,0 329.05,9.98 466.65,28.92 138.6,19.94 270.22,46.87 396.86,81.76 99.71,29.92 207.4,69.8 324.06,120.66 116.66,49.85 211.39,93.73 283.18,130.62 v 1038 h -110.68 c -52.84,-46.86 -118.65,-101.7 -198.42,-166.52 -80.77,-64.81 -170.51,-128.62 -272.22,-190.45 -100.71,-61.82 -212.39,-114.67 -334.03,-158.54 -121.65,-42.88 -249.28,-64.81 -381.9,-64.81 -157.55,0 -302.13,24.93 -433.75,74.78 -130.62,48.86 -256.26,135.61 -374.92,257.26 -108.68,110.68 -198.42,261.25 -267.23,449.7 -68.8,188.46 -103.7,410.82 -103.7,667.08 0,270.22 35.9,497.56 107.69,681.03 72.79,183.47 166.52,332.04 284.18,444.72 112.68,108.68 238.31,187.46 377.91,236.31 138.6,48.86 278.2,72.79 415.8,72.79 144.58,0 281.19,-23.93 411.81,-70.79 130.63,-46.87 241.31,-99.71 330.05,-157.55 97.72,-58.83 183.47,-119.65 257.26,-181.47 73.78,-61.82 138.6,-116.67 192.44,-164.53 h 99.71 v 1021.05 c -79.77,36.9 -172.5,78.78 -277.2,126.64 -104.69,47.86 -213.38,87.75 -324.06,120.65 -136.61,40.88 -263.24,71.79 -381.9,93.73 -118.66,20.94 -282.18,31.91 -490.58,31.91 z m 3462,-5.98 c -332.04,0 -624.2,-31.91 -876.47,-96.73 -252.27,-63.81 -485.6,-143.58 -701.97,-239.3 v -1034.02 h 98.71 c 218.37,184.47 457.68,326.06 719.93,425.77 262.24,98.72 516.5,148.57 763.79,148.57 61.82,0 143.59,-6.98 245.29,-19.94 102.71,-13.96 184.47,-34.9 246.29,-64.81 75.78,-32.91 140.6,-78.78 192.45,-137.61 52.84,-59.82 78.77,-137.6 78.77,-234.32 0,-108.69 -42.88,-197.43 -128.63,-266.23 -84.76,-67.81 -187.46,-117.66 -306.12,-148.57 -147.57,-38.89 -305.12,-75.78 -473.63,-110.68 -168.51,-34.9 -325.06,-77.78 -470.64,-128.63 -337.03,-118.66 -577.33,-278.2 -723.91,-478.62 -145.58,-200.42 -218.37,-451.7 -218.37,-753.82 0,-406.83 172.5,-735.88 516.51,-988.15 345,-252.27 774.76,-377.91 1290.27,-377.91 259.26,0 516.51,25.92 772.77,78.77 255.27,52.85 484.6,123.65 687.02,213.39 v 994.13 h -95.72 c -161.54,-137.61 -357.97,-253.27 -590.3,-348 -232.33,-94.73 -470.64,-142.59 -715.93,-142.59 -94.73,0 -180.48,6.98 -256.26,19.95 -75.78,13.95 -155.55,39.88 -239.31,78.77 -67.81,29.91 -126.64,75.78 -175.5,136.6 -49.85,60.83 -74.78,128.63 -74.78,204.41 0,110.68 38.89,198.43 117.66,264.24 78.77,64.81 231.33,123.64 456.68,176.49 145.58,32.91 286.18,64.81 421.78,95.72 134.62,31.91 279.2,73.79 432.76,128.63 301.13,108.69 525.48,255.27 672.06,439.73 146.57,183.47 220.36,426.77 220.36,727.9 0,432.75 -169.51,779.75 -509.53,1042.99 -339.02,262.25 -797.7,393.87 -1376.03,393.87 z"
             class="fil2"
             inkscape:connector-curvature="0"
             style="fill:url(#id1);fill-rule:nonzero" />
          <path
             id="path100"
             d="m 17867.13,14164.03 c 0,-19.96 -9.98,-29.94 -29.94,-29.94 h -142.25 c -3.33,-14.98 -4.99,-22.46 -4.99,-22.46 -3.33,-23.3 -5.82,-42.84 -7.49,-58.65 -1.66,-15.8 -2.49,-41.18 -2.49,-76.11 v -1447.42 c 0,-19.97 -9.99,-29.95 -29.95,-29.95 h -319.43 c -19.96,0 -29.95,9.98 -29.95,29.95 v 94.83 c 0,19.96 9.99,29.94 29.95,29.94 h 159.71 v 486.64 c -46.58,-31.61 -95.24,-53.66 -145.98,-66.14 -50.75,-12.47 -107.73,-18.71 -170.95,-18.71 -71.54,0 -133.93,17.05 -187.17,51.16 -53.23,34.1 -96.91,81.1 -131.01,141 -34.11,59.89 -59.06,129.76 -74.87,209.62 -15.8,79.86 -23.71,165.54 -23.71,257.04 0,79.86 7.91,155.98 23.71,228.35 15.81,72.37 39.51,137.25 71.12,194.65 31.61,57.4 72.37,102.73 122.29,136.01 49.91,33.27 107.3,49.91 172.19,49.91 84.85,0 157.22,-14.14 217.11,-42.43 59.89,-28.28 113.97,-63.22 162.21,-104.81 1.67,4.99 4.99,13.31 9.98,24.96 8.32,26.61 17.89,47.83 28.7,63.63 10.82,15.81 27.04,23.71 48.67,23.71 h 224.6 c 19.96,0 29.94,-9.98 29.94,-29.95 z m -376.83,-154.72 c -44.92,42.42 -93.16,77.78 -144.74,106.48 -51.57,28.69 -106.47,43.25 -164.7,43.25 -46.59,0 -84.85,-12.89 -114.8,-39.1 -29.95,-25.78 -52.41,-59.89 -67.38,-102.73 -14.97,-42.42 -24.95,-89.01 -29.95,-139.33 -4.99,-49.91 -7.48,-106.06 -7.48,-168.04 0,-71.95 2.91,-135.59 8.73,-190.49 5.83,-55.32 16.64,-105.65 32.44,-150.57 15.81,-45.33 39.52,-81.1 71.13,-107.72 31.61,-27.04 72.37,-40.35 122.28,-40.35 59.89,0 113.55,6.24 160.96,19.14 47.42,12.89 91.92,34.93 133.51,65.71 z m 1095.55,154.72 c 0,-19.96 -9.98,-29.94 -29.95,-29.94 h -177.18 v -1005.71 c 0,-24.96 -10.81,-37.43 -32.44,-37.43 h -354.37 c -19.96,0 -29.95,9.98 -29.95,29.94 v 94.83 c 0,19.97 9.99,29.95 29.95,29.95 h 197.15 v 888.42 h -179.68 c -19.97,0 -29.95,9.98 -29.95,29.94 v 94.83 c 0,19.97 9.98,29.95 29.95,29.95 h 546.52 c 19.97,0 29.95,-9.98 29.95,-29.95 z m -164.71,-1512.3 c 0,-41.59 -14.97,-77.36 -44.92,-107.31 -29.94,-29.95 -65.71,-44.92 -107.3,-44.92 -41.6,0 -77.37,14.97 -107.31,44.92 -29.95,29.95 -44.92,65.72 -44.92,107.31 0,41.59 14.97,77.36 44.92,107.31 29.94,29.94 65.71,44.92 107.31,44.92 41.59,0 77.36,-14.98 107.3,-44.92 29.95,-29.95 44.92,-65.72 44.92,-107.31 z m 1227.81,770.71 c 0,-41.59 2.08,-74.04 6.24,-97.33 4.16,-23.29 12.89,-52.4 26.2,-87.34 8.32,-21.63 19.14,-42.01 32.45,-61.98 8.31,-13.3 12.47,-23.29 12.47,-29.94 0,-4.99 -3.32,-9.98 -9.98,-14.98 l -112.3,-69.87 c -6.65,-3.33 -14.14,-4.99 -22.46,-4.99 -9.98,0 -21.63,9.56 -34.94,28.7 -13.31,19.13 -25.78,45.33 -37.43,78.61 l -4.99,-4.99 c -34.94,-26.62 -75.28,-50.33 -121.03,-71.13 -45.76,-20.79 -101.91,-31.19 -168.45,-31.19 -154.73,0 -271.6,57.81 -350.63,173.02 -79.02,115.63 -118.54,273.68 -118.54,474.57 0,172.61 34.94,307.37 104.82,404.7 69.87,96.91 163.04,145.57 279.5,145.57 73.2,0 136.84,-13.72 190.91,-41.17 54.07,-27.46 103.56,-59.48 148.48,-96.08 0,1.66 0.83,18.3 2.5,49.91 3.33,79.86 4.99,149.32 4.99,207.96 0,39.93 -2.91,75.7 -8.74,106.89 -5.82,30.78 -17.88,58.23 -36.18,82.77 -18.3,24.13 -44.92,43.67 -79.86,59.06 -34.94,14.98 -79.86,22.46 -134.76,22.46 -54.9,0 -106.89,-7.9 -155.97,-23.7 -49.08,-15.81 -97.74,-35.36 -145.99,-58.65 -23.29,-9.98 -36.6,-14.97 -39.93,-14.97 -8.32,0 -14.14,4.99 -17.47,14.97 l -39.93,82.35 c -6.65,13.31 -9.98,24.13 -9.98,32.45 0,11.64 12.48,24.95 37.44,39.92 24.95,14.98 59.06,29.54 102.31,43.68 43.26,14.14 89.43,25.78 138.51,34.93 49.07,9.15 96.07,13.73 140.99,13.73 81.53,0 150.57,-11.65 207.13,-34.94 56.57,-23.29 101.91,-55.32 136.01,-96.08 34.11,-40.34 58.65,-86.92 73.62,-139.33 14.97,-52.41 22.46,-108.56 22.46,-168.04 0,-33.27 -0.83,-77.36 -2.49,-132.26 -1.67,-54.9 -3.33,-103.98 -5,-147.24 -3.32,-44.5 -5.82,-94.83 -7.48,-150.56 -1.67,-55.74 -2.5,-101.07 -2.5,-136.01 z m -189.66,539.87 c -4.99,3.33 -10.81,7.49 -17.47,12.48 -46.58,34.1 -91.09,61.55 -133.51,82.77 -42.42,21.21 -89.42,31.61 -141,31.61 -79.86,0 -136.01,-36.61 -168.45,-110.22 -32.44,-73.21 -48.66,-180.93 -48.66,-322.76 0,-136.84 23.29,-243.73 69.87,-320.26 46.59,-76.95 116.46,-115.22 209.63,-115.22 39.93,0 77.36,5.83 112.3,17.89 34.94,12.06 69.87,26.62 104.81,44.09 l 12.48,7.48 z m 1068.09,201.72 c 0,-19.96 -9.98,-29.94 -29.95,-29.94 h -177.18 v -1005.71 c 0,-24.96 -10.81,-37.43 -32.44,-37.43 h -354.37 c -19.96,0 -29.95,9.98 -29.95,29.94 v 94.83 c 0,19.97 9.99,29.95 29.95,29.95 h 197.15 v 888.42 h -179.68 c -19.97,0 -29.95,9.98 -29.95,29.94 v 94.83 c 0,19.97 9.98,29.95 29.95,29.95 h 546.52 c 19.97,0 29.95,-9.98 29.95,-29.95 z m -164.71,-1512.3 c 0,-41.59 -14.97,-77.36 -44.92,-107.31 -29.94,-29.95 -65.71,-44.92 -107.3,-44.92 -41.6,0 -77.37,14.97 -107.31,44.92 -29.95,29.95 -44.92,65.72 -44.92,107.31 0,41.59 14.97,77.36 44.92,107.31 29.94,29.94 65.71,44.92 107.31,44.92 41.59,0 77.36,-14.98 107.3,-44.92 29.95,-29.95 44.92,-65.72 44.92,-107.31 z m 1045.64,1454.9 c 0,-9.98 -5.83,-14.97 -17.47,-14.97 -4.99,0 -18.3,4.99 -39.93,14.97 -33.27,14.98 -65.72,27.46 -97.33,37.44 -31.61,9.98 -65.71,14.97 -102.31,14.97 -36.61,0 -64.89,-5.41 -84.85,-16.22 -19.97,-10.81 -34.94,-25.79 -44.92,-44.92 -9.99,-19.55 -15.81,-39.51 -17.47,-60.31 -1.67,-20.79 -2.5,-47.83 -2.5,-81.1 v -710.82 h 329.41 c 14.98,0 25.79,-7.49 32.45,-22.46 l 32.44,-97.33 c 0,-3.32 0.83,-6.65 2.49,-9.98 0,-3.33 0,-5.82 0,-7.49 0,-11.64 -9.15,-17.46 -27.45,-17.46 h -369.34 v -384.32 c 0,-18.3 -4.16,-27.45 -12.48,-27.45 -1.66,0 -4.15,0 -7.48,0 -3.33,0 -6.66,0 -9.98,0 l -132.27,37.85 c -18.3,4.99 -27.45,14.97 -27.45,29.95 v 343.97 h -187.17 c -11.64,0 -17.46,9.98 -17.46,29.94 v 94.83 c 0,8.32 0.83,15.39 2.49,21.22 1.66,5.82 6.66,8.73 14.97,8.73 h 187.17 v 708.74 c 0,64.88 4.16,119.37 12.48,163.45 8.32,44.09 28.28,83.61 59.89,118.54 19.97,24.96 51.16,45.76 93.58,62.39 42.43,16.64 89.43,24.96 141,24.96 31.61,0 66.14,-3.75 103.57,-11.23 37.43,-7.07 73.2,-16.22 107.31,-27.04 34.1,-10.4 61.14,-21.63 81.1,-32.86 19.97,-11.64 29.95,-21.62 29.95,-29.53 0,-4.99 -0.83,-11.64 -2.5,-19.96 l -2.49,-4.58 z m 284.49,-818.54 c 3.32,8.32 9.15,12.48 17.47,12.48 4.99,0 17.46,-4.99 37.43,-14.97 39.93,-18.3 81.1,-33.69 123.53,-46.17 42.42,-12.48 90.25,-18.72 143.49,-18.72 84.85,0 143.08,17.89 174.69,54.07 31.61,36.19 47.42,93.59 47.42,172.2 v 90.67 h -9.99 c -68.21,1.66 -133.92,6.65 -197.14,14.97 -63.23,8.32 -129.77,26.62 -199.65,54.9 -69.87,28.29 -128.52,71.96 -175.93,131.02 -47.42,59.06 -71.13,136.84 -71.13,233.34 0,109.8 29.12,195.9 87.35,258.28 58.23,62.39 137.25,93.59 237.07,93.59 81.52,0 149.74,-16.22 204.64,-48.67 54.9,-32.44 103.15,-68.62 144.74,-108.55 3.33,-3.33 6.66,-6.66 9.98,-9.98 l 4.99,12.47 c 9.99,34.94 21.22,63.64 33.69,86.1 12.48,22.46 31.2,33.69 56.15,33.69 h 212.13 c 19.96,0 29.94,-9.98 29.94,-29.95 v -94.83 c 0,-19.96 -9.98,-29.94 -29.94,-29.94 h -117.3 v 0 c -11.64,-39.93 -19.54,-73.21 -23.7,-99.83 -4.16,-26.62 -6.24,-76.53 -6.24,-149.73 v -479.14 c 0,-111.47 -29.95,-197.57 -89.84,-258.29 -59.9,-60.73 -158.05,-91.09 -294.48,-91.09 -38.26,0 -80.27,3.74 -126.02,11.23 -45.75,7.07 -88.59,17.05 -128.52,29.11 -39.93,12.48 -72.37,25.37 -97.33,38.27 -24.95,13.31 -37.43,24.54 -37.43,34.52 0,8.32 2.49,18.72 7.48,32.03 z m 544.03,726.21 c -3.33,3.33 -8.32,8.32 -14.98,14.97 -41.59,38.27 -84.43,71.13 -128.52,98.58 -44.09,27.45 -91.09,41.17 -141,41.17 -58.23,0 -102.73,-21.21 -133.51,-63.63 -30.78,-42.43 -46.17,-91.92 -46.17,-148.49 0,-59.89 16.64,-108.14 49.91,-144.74 33.28,-36.6 74.46,-63.22 123.53,-79.86 49.08,-16.63 95.25,-27.03 138.51,-31.19 43.25,-4.16 90.67,-7.07 142.24,-8.74 h 9.99 z m 1050.62,137.25 v -2.49 c -3.32,-8.32 -9.15,-12.48 -17.47,-12.48 -3.32,0 -12.47,2.5 -27.45,7.49 -39.93,16.64 -74.03,24.95 -102.31,24.95 -31.61,0 -55.32,-9.56 -71.13,-28.7 -15.8,-19.13 -25.37,-38.68 -28.7,-58.64 -1.66,-13.31 -3.32,-45.34 -4.99,-96.08 -1.66,-50.74 -2.49,-96.91 -2.49,-138.5 v -1310.17 c 0,-24.95 -11.65,-37.43 -34.94,-37.43 h -304.46 c -19.96,0 -29.94,9.98 -29.94,29.95 v 94.83 c 0,19.96 9.98,29.94 29.94,29.94 h 149.74 v 1187.89 c 0,73.2 1.66,133.92 4.99,182.17 1.66,39.93 4.99,75.7 9.98,107.31 4.99,31.61 11.64,55.73 19.96,72.37 14.98,36.6 42.84,65.72 83.6,87.35 40.76,21.62 91.09,32.44 150.98,32.44 46.59,0 93.59,-7.07 141,-21.21 47.42,-14.15 71.13,-27.87 71.13,-41.18 0,-4.99 -1.67,-10.82 -4.99,-17.47 z"
             class="fil0"
             inkscape:connector-curvature="0"
             style="fill:#9abf3b;fill-rule:nonzero" />
        </g>
      </g>
    </g>
  </g>
</svg>
