<svg xmlns="http://www.w3.org/2000/svg" width="500" height="500"><path fill="#EA2128" d="M68.1 192.3s318.5 96.8 363.8 98H124.4s91.9-28.2-56.3-98z"/><path fill="#231F20" d="M211.1 262.4h-23.3l-5.2 11.1h-21l37-67.4H221l13 67.4h-21.5l-1.4-11.1zm-1.6-14.6l-3-24.2-11.6 24.2h14.6zM288 245.9l17 5.5c-1.9 4.7-4.6 9.1-8 12.8-3.1 3.3-6.8 6-11 7.7-4.8 1.9-10 2.8-15.2 2.6-7.2 0-12.9-1.1-17.1-3.2s-7.5-5.9-9.8-11.2c-2.4-5.3-2.8-12.2-1.3-20.6 2-11.2 6.4-19.7 13.4-25.7 6.9-6 15.7-9 26.4-9 8.4 0 14.6 1.7 18.8 5.1 4.2 3.4 6.8 8.7 7.9 15.9l-18.9 4.1c-.1-1.6-.5-3.1-1.2-4.5-.8-1.5-2.1-2.8-3.6-3.7-1.6-.9-3.5-1.3-5.4-1.3-4.6 0-8.9 2.1-11.7 5.7-2.4 2.8-4.1 7.2-5.2 13.3-1.3 7.5-1.1 12.6.6 15.4s4.6 4.1 8.7 4.1c3.5.2 6.9-1 9.5-3.4 2.7-2.6 4.8-5.9 6.1-9.6zM311.5 251.2l19.8-1.2c-.1 3.2.3 5.7 1.3 7.4 1.6 2.7 4.4 4.1 8.3 4.1 2.5.1 5.1-.6 7.1-2.1 1.7-1.1 2.8-2.9 3.2-4.9.3-1.7-.2-3.5-1.4-4.7-1.3-1.4-4.5-2.7-9.8-3.9-8.7-2.1-14.6-4.8-17.8-8.2s-4.4-7.7-3.5-13c.7-3.6 2.3-7 4.7-9.8 2.7-3.2 6.3-5.7 10.2-7.3 4.3-1.8 9.9-2.6 16.8-2.6 8.5 0 14.7 1.6 18.6 4.8 3.9 3.2 5.6 8.3 5.2 15.3l-19.6 1.1c0-3-.7-5.2-2.1-6.6s-3.5-2.1-6.5-2.1c-2-.1-4 .4-5.7 1.5-1.3.9-2.2 2.2-2.5 3.8-.2 1.1.2 2.2 1 2.9.8.9 3 1.7 6.5 2.5 8.7 2 14.7 4 18.2 6 3.2 1.6 5.7 4.2 7.1 7.5 1.3 3.2 1.6 6.7.9 10-.8 4.4-2.8 8.6-5.7 12-3 3.7-6.9 6.5-11.4 8.3-5.3 2-10.9 3-16.5 2.8-11.3 0-18.8-2.2-22.3-6.6-3.2-4.4-4.7-10.1-4.1-17z"/><path fill="#FFF" d="M214.6 260.2h-23.3l-5.2 11.1h-21l37-67.4h22.4l13 67.4H216l-1.4-11.1zm-1.7-14.5l-3-24.2-11.6 24.2h14.6z"/><path fill="#231F20" d="M239.1 272.8h-24.4l-1.3-11.1h-21.2l-5.2 11.1h-24.2l38.6-70.2h24.4l13.3 70.2zm-22-2.8h18.6l-12.4-64.6h-20.4L167.4 270h17.7l5.2-11.1h25.4l1.4 11.1zm-2.6-22.9h-18.4l14.6-30.6 3.8 30.6zm-14-2.8h10.8l-2.2-17.9-8.6 17.9z"/><path fill="#FFF" d="M291.5 243.8l17 5.5c-1.9 4.7-4.6 9.1-8 12.8-3.1 3.3-6.9 6-11.1 7.8-4.8 1.9-10 2.8-15.2 2.6-7.2 0-12.9-1.1-17.1-3.2-4.2-2.1-7.5-5.9-9.9-11.2-2.4-5.3-2.8-12.2-1.3-20.6 2-11.2 6.4-19.7 13.3-25.7s15.7-9 26.4-9c8.4 0 14.6 1.7 18.8 5.1s6.8 8.7 7.8 15.8l-18.9 4.1c-.1-1.6-.5-3.1-1.2-4.5-.8-1.5-2.1-2.8-3.6-3.7-1.6-.9-3.5-1.3-5.3-1.3-4.6 0-8.9 2.1-11.7 5.7-2.4 2.8-4.1 7.2-5.2 13.3-1.3 7.5-1.1 12.6.6 15.4 1.7 2.8 4.6 4.2 8.7 4.2 3.5.2 6.9-1 9.5-3.4 3-2.7 5.1-6.1 6.4-9.7z"/><path fill="#231F20" d="M274.2 273.9c-7.4 0-13.4-1.1-17.8-3.4s-8-6.3-10.5-11.9-2.9-12.8-1.4-21.4c2-11.4 6.7-20.4 13.8-26.5s16.4-9.3 27.4-9.3c8.7 0 15.3 1.8 19.7 5.5s7.2 9.3 8.3 16.7l.2 1.3-21.6 4.7-.2-1.5c-.1-1.4-.4-2.7-1-4-.7-1.3-1.7-2.4-3-3.1-1.4-.8-3-1.1-4.6-1.1-4.2 0-8.1 1.9-10.6 5.2-2.2 2.6-3.9 6.9-4.9 12.6-1.6 8.8-.6 12.7.4 14.4 1.5 2.4 3.9 3.5 7.5 3.5 3.1.2 6.2-.9 8.6-3 2.6-2.6 4.6-5.8 5.8-9.2l.5-1.2 19.7 6.4-.6 1.4c-1.9 4.9-4.8 9.4-8.3 13.3-3.2 3.5-7.2 6.2-11.5 8.1-5.1 1.7-10.5 2.7-15.9 2.5zm11.5-69.7c-10.3 0-18.9 2.9-25.5 8.6s-11 14.1-12.9 24.9c-1.4 8-1 14.7 1.2 19.8 2.2 5.1 5.3 8.6 9.2 10.6s9.5 3 16.5 3c5 .1 10-.7 14.6-2.5 4-1.7 7.6-4.2 10.6-7.4 3-3.3 5.4-7 7.1-11l-14.3-4.6c-1.4 3.4-3.4 6.4-6 9-2.9 2.6-6.6 3.9-10.5 3.7-4.5 0-7.9-1.6-9.9-4.8s-2.2-8.5-.8-16.4c1.1-6.2 3-10.9 5.5-13.9 3.1-3.9 7.8-6.2 12.8-6.2 2.1 0 4.2.5 6 1.5 1.7 1 3.2 2.5 4.1 4.2.5 1.1.9 2.3 1.1 3.5l16.1-3.5c-1.1-6.1-3.5-10.7-7.1-13.6-3.7-3.3-9.8-4.9-17.8-4.9z"/><path fill="#FFF" d="M315 249.1l19.8-1.2c-.1 3.2.3 5.7 1.3 7.4 1.6 2.7 4.4 4.1 8.3 4.1 2.6.1 5.1-.6 7.1-2.1 1.7-1.1 2.8-2.9 3.2-4.9.3-1.7-.2-3.5-1.4-4.7-1.3-1.4-4.5-2.7-9.8-3.9-8.7-2.1-14.6-4.8-17.8-8.2-3.2-3.4-4.4-7.7-3.5-13 .7-3.6 2.3-7 4.7-9.8 2.7-3.2 6.3-5.7 10.2-7.3 4.3-1.8 9.9-2.6 16.8-2.6 8.5 0 14.7 1.6 18.6 4.8s5.6 8.3 5.2 15.3l-19.6 1.1c0-3-.7-5.2-2.1-6.6s-3.5-2.1-6.5-2.1c-2-.1-4 .4-5.7 1.5-1.3.9-2.2 2.2-2.5 3.8-.2 1.1.2 2.2 1 2.9.8.9 3 1.7 6.5 2.5 8.7 2 14.7 4 18.2 6 3.2 1.6 5.7 4.2 7.1 7.5 1.3 3.2 1.6 6.7.9 10-.8 4.4-2.8 8.6-5.7 12-3 3.7-6.9 6.5-11.4 8.3-5.3 2-10.9 3-16.5 2.8-11.3 0-18.8-2.2-22.3-6.6s-4.7-10.2-4.1-17z"/><path fill="#231F20" d="M341.6 273.9c-11.9 0-19.5-2.3-23.4-7.2s-5.4-10.7-4.7-17.8l.1-1.2 22.5-1.4-.1 1.6c-.1 2.9.2 5.2 1.1 6.6 1.4 2.3 3.7 3.4 7.1 3.4 2.2.1 4.5-.5 6.3-1.8a6.2 6.2 0 0 0 2.7-4c.2-1.3-.2-2.6-1.1-3.5-.6-.6-2.6-2-9.1-3.5-9-2.1-15-5-18.5-8.6s-4.9-8.5-3.9-14.2c.7-3.9 2.5-7.5 5-10.5 2.9-3.4 6.6-6.1 10.8-7.7 4.4-1.8 10.3-2.8 17.4-2.8 8.8 0 15.3 1.7 19.5 5.1s6.2 9 5.7 16.5l-.1 1.2-22.3 1.3V224c0-2.6-.5-4.5-1.6-5.6s-3-1.7-5.5-1.7c-1.7-.1-3.4.3-4.9 1.3-1 .7-1.7 1.7-1.9 2.9-.1.6.1 1.3.6 1.7.3.3 1.4 1.1 5.8 2.1 8.9 2 14.9 4 18.6 6.1 3.4 1.8 6.2 4.6 7.8 8.1 1.4 3.4 1.7 7.2 1 10.8-.9 4.6-2.9 9-6 12.6-3.2 3.8-7.3 6.8-11.9 8.7-5.4 2-11.1 3.1-17 2.9zm-25.4-23.5c-.3 5.9 1.1 10.8 4.2 14.6 3.3 4.1 10.4 6.1 21.2 6.1 5.5.1 10.9-.8 16-2.7 4.2-1.7 7.9-4.4 10.8-7.9 2.7-3.2 4.6-7.1 5.4-11.3.6-3.1.3-6.3-.9-9.2-1.4-2.9-3.7-5.3-6.5-6.8-3.4-1.9-9.4-3.9-17.9-5.8-5.1-1.1-6.5-2.2-7.2-2.9a4.51 4.51 0 0 1-1.3-4.1c.4-1.9 1.4-3.5 3-4.6 1.9-1.3 4.2-1.9 6.5-1.8 3.3 0 5.8.8 7.4 2.5 1.5 1.7 2.4 3.9 2.4 6.1l16.9-1c.1-5.9-1.5-10.2-4.8-12.9-3.6-3-9.6-4.5-17.7-4.5-6.7 0-12.2.9-16.3 2.5-3.7 1.5-7 3.8-9.6 6.9-2.2 2.6-3.8 5.8-4.4 9.2-.9 4.9.2 8.7 3.1 11.8s8.8 5.8 17.1 7.8c5.7 1.3 9 2.7 10.5 4.3 1.5 1.6 2.2 3.8 1.8 5.9-.5 2.3-1.8 4.4-3.8 5.7-2.3 1.7-5.1 2.5-8 2.4-4.4 0-7.6-1.6-9.5-4.8-1.1-2-1.6-4.3-1.5-6.6l-16.9 1.1z"/></svg>